<?xml version="1.0" standalone="no"?>
<!DOCTYPE svg PUBLIC "-//W3C//DTD SVG 20010904//EN"
 "http://www.w3.org/TR/2001/REC-SVG-20010904/DTD/svg10.dtd">
<svg version="1.0" xmlns="http://www.w3.org/2000/svg"
 width="253.000000pt" height="253.000000pt" viewBox="0 0 253.000000 253.000000"
 preserveAspectRatio="xMidYMid meet">
<metadata>
Created by potrace 1.14, written by Peter Selinger 2001-2017
</metadata>
<g transform="translate(0.000000,253.000000) scale(0.100000,-0.100000)"
fill="#000000" stroke="none">
<path d="M1108 2453 c-51 -13 -133 -43 -183 -68 -57 -29 -103 -45 -126 -45
-30 0 -64 -5 -154 -24 -5 -1 -14 -4 -20 -8 -5 -3 -25 -9 -42 -13 -18 -3 -35
-11 -38 -16 -3 -4 -20 -15 -38 -24 -18 -8 -44 -26 -59 -40 -15 -14 -30 -25
-34 -25 -9 0 -60 -55 -96 -101 -12 -17 -28 -36 -33 -42 -17 -20 -67 -117 -60
-117 4 0 -1 -7 -9 -16 -9 -8 -16 -21 -17 -27 0 -7 -3 -21 -5 -32 -3 -11 -6
-27 -8 -35 -1 -9 -4 -20 -7 -25 -10 -19 -12 -85 -12 -590 0 -466 2 -542 17
-613 9 -43 47 -135 66 -163 11 -15 20 -32 20 -38 0 -6 4 -11 8 -11 4 0 16 -14
27 -32 36 -61 130 -144 205 -180 14 -7 27 -15 30 -18 7 -7 69 -41 72 -40 4 2
24 -5 68 -21 55 -21 1072 -23 1155 -3 89 22 90 22 93 24 1 2 5 3 10 4 13 2
126 61 142 73 8 7 34 26 58 43 71 51 201 238 202 291 0 9 3 19 7 23 5 4 9 12
9 17 1 5 2 10 4 12 3 4 10 42 16 97 12 107 6 1125 -6 1125 -1 0 -4 12 -6 27
-1 15 -12 48 -23 73 -11 25 -17 45 -13 45 4 0 2 4 -3 8 -6 4 -18 22 -26 40
-25 52 -118 164 -167 202 -25 19 -51 41 -59 48 -7 7 -13 11 -13 8 0 -4 -17 5
-38 19 -53 35 -195 75 -268 75 -33 0 -64 4 -70 9 -23 21 -145 80 -197 95 -123
35 -258 39 -379 9z m-539 -439 c-14 -33 -18 -46 -20 -61 0 -5 -5 -14 -11 -20
-6 -7 -7 -13 -3 -13 4 0 3 -6 -3 -13 -11 -13 -24 -65 -26 -99 0 -10 -3 -18 -6
-18 -3 0 -6 -41 -7 -91 -1 -51 -4 -93 -5 -94 -2 -2 -29 -5 -60 -7 -48 -4 -58
-1 -59 11 -3 34 0 98 6 128 3 18 6 36 7 40 2 27 45 115 76 156 41 57 116 130
120 118 1 -4 -3 -21 -9 -37z m1454 2 c26 -24 47 -46 47 -50 0 -4 8 -16 18 -27
11 -10 25 -32 33 -47 8 -15 18 -30 24 -34 5 -4 6 -8 2 -8 -4 0 -2 -10 5 -22 6
-13 13 -30 14 -38 16 -98 22 -161 16 -177 -3 -9 -25 -13 -65 -13 -33 0 -57 3
-54 6 3 4 2 15 -3 25 -7 12 -7 20 0 24 6 4 7 12 3 18 -4 6 -8 32 -9 57 -1 25
-5 63 -9 84 -8 47 -63 207 -76 221 -11 11 -12 25 -1 25 5 0 29 -20 55 -44z"/>
</g>
</svg>
